<?xml version="1.0" encoding="utf-8"?>
<!-- Generator: Adobe Illustrator 25.2.1, SVG Export Plug-In . SVG Version: 6.00 Build 0)  -->
<svg version="1.1" id="Camada_1" xmlns="http://www.w3.org/2000/svg" xmlns:xlink="http://www.w3.org/1999/xlink" x="0px" y="0px"
	 viewBox="0 0 410 404" style="enable-background:new 0 0 410 404;" xml:space="preserve">
<style type="text/css">
	.st0{fill-rule:evenodd;clip-rule:evenodd;fill:#FFFFFF;}
</style>
<g>
	<path class="st0" d="M326.2,353.5C293,380.1,250.8,396,205,396C97.9,396,11,309.2,11,202c0-67.5,34.5-127,86.9-161.7
		c5.6,75.5,22.7,146.1,51.9,202.9C195.1,331.5,260.2,367.7,326.2,353.5L326.2,353.5z"/>
	<path class="st0" d="M205,8c107.1,0,194,86.9,194,194c0,35.1-9.4,68.1-25.7,96.5c-81.8,27.3-163.9-10.8-217.6-115.7
		C133.3,139,118,87.8,109.6,33C137.8,17.1,170.3,8,205,8L205,8z"/>
</g>
</svg>
